<svg xmlns="http://www.w3.org/2000/svg" xmlns:xlink="http://www.w3.org/1999/xlink" viewBox="0 0 500 500"><defs><style>.cls-1{fill:url(#linear-gradient);}.cls-2{fill:url(#linear-gradient-2);}.cls-3{fill:url(#linear-gradient-3);}.cls-4{fill:url(#linear-gradient-4);}.cls-5{fill:url(#linear-gradient-5);}.cls-6{fill:url(#linear-gradient-6);}.cls-7{fill:url(#linear-gradient-7);}.cls-8{fill:url(#linear-gradient-8);}.cls-9{fill:url(#linear-gradient-9);}.cls-10{fill:url(#linear-gradient-10);}.cls-11{fill:url(#linear-gradient-11);}.cls-12{fill:url(#linear-gradient-12);}</style><linearGradient id="linear-gradient" x1="259.14" y1="219.32" x2="253.39" y2="244.29" gradientTransform="translate(-7.18 7.89) rotate(-1.77)" gradientUnits="userSpaceOnUse"><stop offset="0" stop-color="#bc17fa"/><stop offset="1" stop-color="#8400c0"/></linearGradient><linearGradient id="linear-gradient-2" x1="241.28" y1="208.97" x2="235.89" y2="232.37" gradientTransform="translate(-20.62 24.21) rotate(-5.23)" xlink:href="#linear-gradient"/><linearGradient id="linear-gradient-3" x1="266.72" y1="228.73" x2="261.66" y2="250.69" gradientTransform="matrix(0.99, 0.12, -0.12, 0.99, 31.99, -30.18)" xlink:href="#linear-gradient"/><linearGradient id="linear-gradient-4" x1="216.51" y1="238.04" x2="281.78" y2="264.56" gradientTransform="matrix(1, 0, 0, 1, 0, 0)" xlink:href="#linear-gradient"/><linearGradient id="linear-gradient-5" x1="183.24" y1="227.18" x2="266.66" y2="227.18" gradientUnits="userSpaceOnUse"><stop offset="0" stop-color="#8400c0"/><stop offset="1" stop-color="#bc17fa"/></linearGradient><linearGradient id="linear-gradient-6" x1="257.86" y1="260.73" x2="252.11" y2="285.71" gradientTransform="translate(507.18 444.92) rotate(178.23)" gradientUnits="userSpaceOnUse"><stop offset="0" stop-color="#00f2fe"/><stop offset="1" stop-color="#534ddb"/></linearGradient><linearGradient id="linear-gradient-7" x1="237.51" y1="250.23" x2="232.12" y2="273.63" gradientTransform="translate(520.62 428.59) rotate(174.77)" xlink:href="#linear-gradient-6"/><linearGradient id="linear-gradient-8" x1="271.88" y1="269.84" x2="266.82" y2="291.81" gradientTransform="matrix(-0.99, -0.12, 0.12, -0.99, 468.01, 482.99)" xlink:href="#linear-gradient-6"/><linearGradient id="linear-gradient-9" x1="216.13" y1="280.4" x2="281.4" y2="306.92" gradientTransform="translate(500 452.81) rotate(180)" gradientUnits="userSpaceOnUse"><stop offset="0" stop-color="#534ddb"/><stop offset="1" stop-color="#00f2fe"/></linearGradient><linearGradient id="linear-gradient-10" x1="176.09" y1="267.71" x2="259.51" y2="267.71" xlink:href="#linear-gradient-9"/><linearGradient id="linear-gradient-11" x1="195.52" y1="130.73" x2="237.02" y2="290.2" gradientTransform="matrix(1, 0, 0, 1, 0, 0)" xlink:href="#linear-gradient"/><linearGradient id="linear-gradient-12" x1="259.7" y1="117.82" x2="304.22" y2="276.47" gradientTransform="matrix(1, 0, 0, 1, 0, 0)" xlink:href="#linear-gradient-6"/></defs><g id="OBJECTS"><path class="cls-1" d="M256.83,249.32s9.43-.15,17.76-19.23c2.47-5.66,3.2-11-.36-11.49-7.16-1.07-8.13,26.15-31.24,20.17-16.31,1.66-1.65,6.5-.49,6.81s8.87,6.31,8.87,6.31Z"/><path class="cls-2" d="M239.07,238.5s9.41-.71,16.57-20.26c2.12-5.79,1.84-8.87-1.75-9.18-7.22-.64-5.84,24.33-29.27,19.76-16.18,2.64-1.25,6.58-.07,6.82s9.23,5.77,9.23,5.77Z"/><path class="cls-3" d="M267.18,250.08s6.29,2.13,13.57-6.93c3.86-4.81,4.86-10.33,1.43-11.41-6.92-2.17-13.75,16.58-30.12,15.69s-6.51,5.57-5.41,6,13.59,1.59,13.59,1.59Z"/><path class="cls-4" d="M243.48,238.9s2.08,6.62,13.4,10,20.3-6.5,26.85-4.52-.52,13.06-15.47,16.85-34.61-2.07-46.81-11.62c-10.64-8.33-23.4-9.67-21.07,1.51-7,2-9.29-9.33-9.29-9.84v-7.59l10-5.35,14.32,2.24,18.11,6Z"/><path class="cls-5" d="M243.48,238.9a3.53,3.53,0,0,1,2.11-.88c3.3-.52,11-1.32,13.1-3.8,1.57-1.87,1.34-5.13-4.76-6.67s-15.76-.35-19.55-2.32c-2.82-1.47-9.89-6.17-16.2-9.39-2.14-1.09-8.3-5.57-18.28-3.37-13.09,1.72-17.08-2.57-17.16-9.27l-6.65,12.29,4.31,17.66s8.85,5.22,10.44,9.34c3.16-.22,7.12,8.12,9.54,8.67-4-10.64,2.5-18.12,16.59-14.55C239.22,242.25,243.48,238.9,243.48,238.9Z"/><path class="cls-6" d="M243.17,162.06s-9.43.14-17.76,19.22c-2.47,5.66-3.21,11,.36,11.5,7.16,1.07,8.13-26.16,31.24-20.18,16.31-1.66,1.65-6.5.49-6.81s-8.87-6.31-8.87-6.31Z"/><path class="cls-7" d="M260.92,172.87s-9.4.71-16.56,20.26c-2.12,5.8-1.84,8.87,1.75,9.19,7.22.63,5.84-24.34,29.27-19.76,16.18-2.64,1.25-6.59.07-6.83s-9.23-5.76-9.23-5.76Z"/><path class="cls-8" d="M232.82,161.3s-6.29-2.13-13.57,6.92c-3.86,4.81-4.86,10.34-1.43,11.42,6.92,2.16,13.75-16.59,30.12-15.7s6.51-5.56,5.41-6.05-13.59-1.59-13.59-1.59Z"/><path class="cls-9" d="M256.52,172.48s-2.08-6.63-13.4-10-20.3,6.51-26.85,4.52.51-13,15.47-16.85,34.61,2.07,46.81,11.62c10.64,8.34,23.4,9.67,21.07-1.51s9.29,9.33,9.29,9.85v7.59l-10,5.35-14.32-2.25-18.11-6Z"/><path class="cls-10" d="M256.52,172.48a3.53,3.53,0,0,1-2.11.88c-3.3.52-11,1.32-13.1,3.8-1.57,1.87-1.34,5.12,4.76,6.66s15.76.35,19.54,2.32c2.83,1.47,9.9,6.18,16.21,9.39,2.14,1.09,8.3,5.58,18.28,3.37,13.09-1.71,18,2.74,17.16,9.27,1.36,7.84,6.65-12.29,6.65-12.29l-4.31-17.65s-8.85-5.22-10.44-9.35c-3.16.22-7.12-8.12-9.54-8.67,4,10.65-2.5,18.13-16.59,14.56C260.78,169.12,256.52,172.47,256.52,172.48Z"/><path class="cls-11" d="M244,288.05a18.6,18.6,0,0,0-13.23-17.86,67.31,67.31,0,0,1,0-129A18.59,18.59,0,0,0,244,123.32h0a82.58,82.58,0,0,0,0,164.73Z"/><path class="cls-12" d="M256,123.32h0a18.59,18.59,0,0,0,13.23,17.86,67.31,67.31,0,0,1,0,129A18.6,18.6,0,0,0,256,288.05h0a82.58,82.58,0,0,0,0-164.73Z"/></g><g id="TEXTS"><path d="M90.45,341.16V310.4h5.06v30.76Zm2.69-12.78v-4.84h17.5v4.84Zm14.47,12.78V310.4h5.06v30.76Z"/><path d="M128.07,341.48a9.06,9.06,0,0,1-6.84-2.51q-2.43-2.5-2.43-7.06v-3.57a9.53,9.53,0,0,1,2.43-7,10.67,10.67,0,0,1,13.68,0,9.53,9.53,0,0,1,2.43,7V332a9.61,9.61,0,0,1-2.43,7A9.09,9.09,0,0,1,128.07,341.48Zm0-4.85a4,4,0,0,0,3.11-1.22,5,5,0,0,0,1.1-3.43v-3.64a4.91,4.91,0,0,0-1.1-3.41,4.62,4.62,0,0,0-6.21,0,4.86,4.86,0,0,0-1.11,3.41V332a5,5,0,0,0,1.11,3.43A4,4,0,0,0,128.07,336.63Z"/><path d="M143.05,350.09V319.2h5v30.89Zm10.36-8.61a6,6,0,0,1-3.45-1,5.7,5.7,0,0,1-2.15-2.78l.29-4.8a4.58,4.58,0,0,0,.45,2.12,3,3,0,0,0,1.29,1.35,4.2,4.2,0,0,0,2,.46,3.64,3.64,0,0,0,2.92-1.19,5,5,0,0,0,1-3.36v-4.12a5.16,5.16,0,0,0-1-3.44,3.62,3.62,0,0,0-2.92-1.21,4.31,4.31,0,0,0-2,.45,3,3,0,0,0-1.29,1.33,4.68,4.68,0,0,0-.45,2.15l-.44-4.55a7.61,7.61,0,0,1,2.47-3,5.86,5.86,0,0,1,3.39-1.05A6.6,6.6,0,0,1,159,321.3a10.8,10.8,0,0,1,1.92,6.85v4.14a10.54,10.54,0,0,1-2,6.79A6.75,6.75,0,0,1,153.41,341.48Z"/><path d="M175.82,341.48a9.89,9.89,0,0,1-7.26-2.56q-2.58-2.57-2.58-7.28v-2.48q0-4.91,2.48-7.59a9,9,0,0,1,7-2.69A7.74,7.74,0,0,1,182,322q2.32,3.12,2.32,8.79v1.44H169.43v-3.7h10.22l0-.23a6.36,6.36,0,0,0-1.3-3.57,3.58,3.58,0,0,0-2.89-1.28,4.47,4.47,0,0,0-3.53,1.43,6,6,0,0,0-1.25,4.05v2.79a4.7,4.7,0,0,0,5.16,5.19,6.65,6.65,0,0,0,2.46-.48,7.62,7.62,0,0,0,2.19-1.32l3.3,3.09a12.25,12.25,0,0,1-3.75,2.42A11,11,0,0,1,175.82,341.48Z"/><path d="M201.9,341.16V310.4H207v30.76ZM204,315.24V310.4h17.66v4.84Zm0,13.33v-4.82h15.34v4.82Z"/><path d="M234.33,341.48a9.08,9.08,0,0,1-6.84-2.51,9.75,9.75,0,0,1-2.42-7.06v-3.57a9.57,9.57,0,0,1,2.42-7,10.69,10.69,0,0,1,13.69,0,9.57,9.57,0,0,1,2.42,7V332a9.64,9.64,0,0,1-2.42,7A9.13,9.13,0,0,1,234.33,341.48Zm0-4.85a4,4,0,0,0,3.11-1.22,5,5,0,0,0,1.1-3.43v-3.64a4.86,4.86,0,0,0-1.1-3.41,4.62,4.62,0,0,0-6.21,0,4.86,4.86,0,0,0-1.11,3.41V332a5,5,0,0,0,1.11,3.43A4,4,0,0,0,234.33,336.63Z"/><path d="M253.84,319.2v13.35a4.14,4.14,0,0,0,1,3,3.84,3.84,0,0,0,2.91,1.07,3.54,3.54,0,0,0,3.92-3.89l.3,4.7a6.93,6.93,0,0,1-2,2.8,5.55,5.55,0,0,1-3.74,1.24,6.85,6.85,0,0,1-5.53-2.32,9.81,9.81,0,0,1-2-6.51V319.2Zm7.87,22v-22h5v22Z"/><path d="M272.88,341.16v-22h5.06v22Zm13,0V327.85a4.17,4.17,0,0,0-1.06-3.06,4,4,0,0,0-3-1.06,3.93,3.93,0,0,0-2.88,1,3.82,3.82,0,0,0-1,2.84l-.45-4.55A7.93,7.93,0,0,1,280,320a6,6,0,0,1,3.59-1.08,6.66,6.66,0,0,1,5.46,2.34,10.15,10.15,0,0,1,1.93,6.61v13.33Z"/><path d="M303.94,341.52a6.76,6.76,0,0,1-5.54-2.41,10.59,10.59,0,0,1-1.95-6.82v-4.18q0-4.42,1.93-6.85a6.59,6.59,0,0,1,5.45-2.42,5.92,5.92,0,0,1,3.38,1,7.3,7.3,0,0,1,2.48,2.92l-.44,4.67a4.75,4.75,0,0,0-.45-2.16,3,3,0,0,0-1.29-1.35,4.2,4.2,0,0,0-2.05-.47,3.63,3.63,0,0,0-2.92,1.22,5.16,5.16,0,0,0-1,3.44v4.14a5,5,0,0,0,1,3.38,3.64,3.64,0,0,0,2.92,1.19,4.09,4.09,0,0,0,2.05-.47A3.06,3.06,0,0,0,308.8,335a4.65,4.65,0,0,0,.45-2.13l.29,4.82a6.07,6.07,0,0,1-2,2.72A5.67,5.67,0,0,1,303.94,341.52Zm5.31-.36V310.4h5.05v30.76Z"/><path d="M326.93,341.48a8.37,8.37,0,0,1-5.66-1.67,6.51,6.51,0,0,1-1.89-5.12,6.07,6.07,0,0,1,1.9-4.9q1.91-1.62,5.72-1.62h5.88l.29,3.93H327a3.46,3.46,0,0,0-2.26.64,2.4,2.4,0,0,0-.75,1.95,2.32,2.32,0,0,0,1,2,5.26,5.26,0,0,0,2.94.66,9,9,0,0,0,3.57-.53,1.74,1.74,0,0,0,1.19-1.65l.44,3.14a3.62,3.62,0,0,1-1.28,1.76,6.34,6.34,0,0,1-2.19,1A10.74,10.74,0,0,1,326.93,341.48Zm5.76-.32V327.24a3.74,3.74,0,0,0-1.09-2.86,4.4,4.4,0,0,0-3.08-1,8.21,8.21,0,0,0-2.5.39,7.39,7.39,0,0,0-2.2,1.13l-3.36-2.83a8.5,8.5,0,0,1,3.38-2.34,12.43,12.43,0,0,1,4.66-.84,9.3,9.3,0,0,1,6.55,2.14,7.79,7.79,0,0,1,2.31,6v14.11Z"/><path d="M341.8,323.62V319.2h10.33v4.42Zm7.62,17.64a5,5,0,0,1-4.08-1.5,6.48,6.48,0,0,1-1.27-4.31V312.81h5.05v21.94a2.11,2.11,0,0,0,.32,1.23,1.08,1.08,0,0,0,.93.44h1.76v4.84Z"/><path d="M357.48,315.46V310.4h5v5.06Zm0,25.7v-22h5v22Z"/><path d="M377.13,341.48a9.09,9.09,0,0,1-6.84-2.51,9.75,9.75,0,0,1-2.42-7.06v-3.57a9.57,9.57,0,0,1,2.42-7,10.69,10.69,0,0,1,13.69,0,9.57,9.57,0,0,1,2.42,7V332a9.64,9.64,0,0,1-2.42,7A9.13,9.13,0,0,1,377.13,341.48Zm0-4.85a4,4,0,0,0,3.12-1.22,5,5,0,0,0,1.09-3.43v-3.64a4.9,4.9,0,0,0-1.09-3.41,4.62,4.62,0,0,0-6.21,0,4.82,4.82,0,0,0-1.12,3.41V332a4.9,4.9,0,0,0,1.12,3.43A4,4,0,0,0,377.13,336.63Z"/><path d="M392.11,341.16v-22h5.06v22Zm13,0V327.85a4.21,4.21,0,0,0-1.05-3.06,4.06,4.06,0,0,0-3-1.06,3.93,3.93,0,0,0-2.88,1,3.86,3.86,0,0,0-1,2.84l-.45-4.55A8,8,0,0,1,399.2,320a6,6,0,0,1,3.6-1.08,6.65,6.65,0,0,1,5.45,2.34,10.09,10.09,0,0,1,1.93,6.61v13.33Z"/><path d="M92.78,375.26,94,369.61a.55.55,0,0,0-.06-.39l-4-9h2.55c1.53,3.56,2.62,6.22,3,7.42.82-1.08,4.12-4.9,6.27-7.42h2.58l-7.95,9.24a.79.79,0,0,0-.19.44l-1.11,5.32Z"/><path d="M113.59,369.18a6.05,6.05,0,0,1-6.38,6.37,4.68,4.68,0,0,1-5.07-4.91,6.16,6.16,0,0,1,6.37-6.43A4.74,4.74,0,0,1,113.59,369.18Zm-9.16,1.35a2.91,2.91,0,0,0,3,3.21c2.69,0,3.87-2.32,3.87-4.55,0-1.79-.94-3.19-3-3.19C105.89,366,104.43,368.16,104.43,370.53Z"/><path d="M125.88,372.38c-.2,1-.41,2-.56,2.88H123.1a15,15,0,0,1,.28-1.71,4.14,4.14,0,0,1-4,2c-2.33,0-3.8-1.39-3.15-4.47l1.41-6.58h2.24l-1.3,6.1c-.35,1.66-.22,3.09,1.64,3.09,2.21,0,3.44-1.63,4.07-4.56l1-4.63h2.23Z"/><path d="M130.83,367.67c.22-1.07.47-2.21.63-3.17h2.15c0,.35-.22,1.45-.43,2.36a4.6,4.6,0,0,1,4.32-2.58l-.53,2.24c-2.41,0-4,1.5-4.62,4.59l-.87,4.15h-2.26Z"/><path d="M150.52,359.39l-1.47,6.9a4.82,4.82,0,0,1,4.07-2.08c2.44,0,3.86,1.51,3.2,4.62L155,375.26h-2.25l1.3-6.16c.36-1.72.15-3-1.88-3s-3.34,1.51-3.91,4.23l-1,4.94h-2.24l3.36-15.87Z"/><path d="M170.62,369.18a6,6,0,0,1-6.37,6.37,4.67,4.67,0,0,1-5.07-4.91,6.16,6.16,0,0,1,6.37-6.43A4.74,4.74,0,0,1,170.62,369.18Zm-9.15,1.35a2.9,2.9,0,0,0,3,3.21c2.69,0,3.87-2.32,3.87-4.55,0-1.79-1-3.19-3-3.19C162.92,366,161.47,368.16,161.47,370.53Z"/><path d="M175.17,373.62l-1.35,6.31h-2.23l2.63-12.31c.32-1.5.5-2.51.6-3.12H177c0,.24-.13.9-.29,1.72a4.75,4.75,0,0,1,4.12-2c2.7,0,4.17,2,4.17,4.57,0,3.39-2.13,6.77-6.17,6.77C176.56,375.55,175.56,374.49,175.17,373.62Zm7.51-4.63c0-1.71-.82-2.93-2.67-2.93a4.21,4.21,0,0,0-4.08,3.77c-.45,2.41.61,3.87,2.77,3.87C181.29,373.7,182.68,371.42,182.68,369Z"/><path d="M189.65,370.39c0,.1,0,.27,0,.41a2.63,2.63,0,0,0,2.82,3,3.11,3.11,0,0,0,3-1.55h2.34c-.79,1.79-2.33,3.34-5.54,3.34s-4.85-2-4.85-4.86a6.22,6.22,0,0,1,6.33-6.48c3.35,0,4.79,2.08,4.79,4.54a6.1,6.1,0,0,1-.21,1.64Zm6.69-1.57s0-.17,0-.34c0-1.39-.78-2.57-2.79-2.57a3.55,3.55,0,0,0-3.59,2.91Z"/><path d="M202.68,371.89c.21,1.47,1.38,2,2.94,2,1.33,0,2.51-.53,2.51-1.6,0-.85-.61-1.33-2.7-1.79-3.08-.69-3.8-1.66-3.8-3,0-1.92,1.66-3.3,4.53-3.3,4,0,4.74,2.29,4.77,3.39h-2.26c-.12-.81-.67-1.77-2.63-1.77-1.24,0-2.09.48-2.09,1.38,0,.74.68,1.09,2.54,1.52,3.07.72,4,1.67,4,3.28,0,2.08-1.82,3.54-5.06,3.54-2.86,0-4.85-1.18-5-3.66Z"/><path d="M231.55,369.18a6,6,0,0,1-6.37,6.37,4.67,4.67,0,0,1-5.07-4.91,6.16,6.16,0,0,1,6.37-6.43A4.74,4.74,0,0,1,231.55,369.18Zm-9.16,1.35a2.91,2.91,0,0,0,3,3.21c2.7,0,3.88-2.32,3.88-4.55,0-1.79-.95-3.19-3-3.19C223.85,366,222.39,368.16,222.39,370.53Z"/><path d="M243.84,372.38c-.2,1-.41,2-.56,2.88h-2.21a17.09,17.09,0,0,1,.27-1.71,4.12,4.12,0,0,1-4,2c-2.33,0-3.81-1.39-3.15-4.47l1.4-6.58h2.25l-1.3,6.1c-.35,1.66-.22,3.09,1.63,3.09,2.21,0,3.44-1.63,4.07-4.56l1-4.63h2.24Z"/><path d="M248.79,367.67c.23-1.07.48-2.21.64-3.17h2.14a23.43,23.43,0,0,1-.42,2.36,4.6,4.6,0,0,1,4.32-2.58l-.54,2.24c-2.41,0-4,1.5-4.62,4.59l-.87,4.15h-2.25Z"/><path d="M264.51,367.67c.22-1.07.48-2.21.64-3.17h2.14c0,.35-.22,1.45-.42,2.36a4.6,4.6,0,0,1,4.32-2.58l-.54,2.24c-2.41,0-4,1.5-4.62,4.59l-.87,4.15h-2.25Z"/><path d="M274.53,370.39a2.46,2.46,0,0,0,0,.41,2.64,2.64,0,0,0,2.83,3,3.11,3.11,0,0,0,3-1.55h2.34c-.79,1.79-2.33,3.34-5.55,3.34s-4.84-2-4.84-4.86a6.22,6.22,0,0,1,6.32-6.48c3.36,0,4.8,2.08,4.8,4.54a5.75,5.75,0,0,1-.22,1.64Zm6.69-1.57s0-.17,0-.34c0-1.39-.78-2.57-2.79-2.57a3.54,3.54,0,0,0-3.59,2.91Z"/><path d="M287.56,371.89c.2,1.47,1.37,2,2.94,2,1.33,0,2.5-.53,2.5-1.6,0-.85-.61-1.33-2.69-1.79-3.08-.69-3.8-1.66-3.8-3,0-1.92,1.65-3.3,4.53-3.3,4,0,4.74,2.29,4.76,3.39h-2.25c-.12-.81-.67-1.77-2.63-1.77-1.24,0-2.1.48-2.1,1.38,0,.74.68,1.09,2.54,1.52,3.07.72,4,1.67,4,3.28,0,2.08-1.81,3.54-5.05,3.54-2.87,0-4.85-1.18-5-3.66Z"/><path d="M300.33,373.62,299,379.93h-2.23l2.63-12.31c.31-1.5.5-2.51.6-3.12h2.19c0,.24-.13.9-.29,1.72a4.75,4.75,0,0,1,4.12-2c2.7,0,4.17,2,4.17,4.57,0,3.39-2.13,6.77-6.17,6.77C301.71,375.55,300.71,374.49,300.33,373.62Zm7.51-4.63c0-1.71-.82-2.93-2.68-2.93a4.2,4.2,0,0,0-4.07,3.77c-.46,2.41.6,3.87,2.77,3.87C306.45,373.7,307.84,371.42,307.84,369Z"/><path d="M324,369.18a6,6,0,0,1-6.37,6.37,4.67,4.67,0,0,1-5.07-4.91,6.16,6.16,0,0,1,6.36-6.43A4.74,4.74,0,0,1,324,369.18Zm-9.16,1.35a2.91,2.91,0,0,0,3,3.21c2.7,0,3.88-2.32,3.88-4.55,0-1.79-.95-3.19-3-3.19C316.26,366,314.8,368.16,314.8,370.53Z"/><path d="M327.63,367.21c.19-.9.39-1.92.54-2.71h2.19c-.07.53-.19,1.27-.32,1.84a4.58,4.58,0,0,1,4-2.13c2.37,0,3.94,1.32,3.22,4.71L336,375.26H333.7L335,369c.35-1.64.05-2.91-1.89-2.91-2.12,0-3.4,1.72-3.91,4.15l-1,5h-2.23Z"/><path d="M341.74,371.89c.21,1.47,1.37,2,2.94,2,1.33,0,2.5-.53,2.5-1.6,0-.85-.61-1.33-2.69-1.79-3.08-.69-3.8-1.66-3.8-3,0-1.92,1.65-3.3,4.53-3.3,4,0,4.74,2.29,4.77,3.39h-2.26c-.12-.81-.67-1.77-2.63-1.77-1.24,0-2.1.48-2.1,1.38,0,.74.69,1.09,2.54,1.52,3.07.72,4,1.67,4,3.28,0,2.08-1.81,3.54-5,3.54-2.87,0-4.85-1.18-5-3.66Z"/><path d="M354.19,364.5h2.23l-2.28,10.76h-2.23Zm1.06-5.11h2.25l-.52,2.5h-2.25Z"/><path d="M361.52,359.39h2.23l-1.42,6.68a4.68,4.68,0,0,1,4.05-1.86c2.24,0,4.23,1.53,4.23,4.55,0,3.53-2.14,6.79-6.25,6.79-2.14,0-3.21-1-3.62-2-.16.74-.31,1.39-.42,1.73h-2.18c.13-.55.37-1.59.65-2.89Zm6.71,9.63c0-1.62-.78-2.93-2.7-2.93-2.21,0-3.6,1.59-4,3.69-.46,2.28.48,3.91,2.76,3.91C366.83,373.69,368.23,371.45,368.23,369Z"/><path d="M375,364.5h2.23L375,375.26h-2.23Zm1.06-5.11h2.25l-.53,2.5h-2.24Z"/><path d="M379,375.26l3.35-15.87h2.24l-3.36,15.87Z"/><path d="M387.53,364.5h2.23l-2.28,10.76h-2.23Zm1.06-5.11h2.25l-.52,2.5h-2.25Z"/><path d="M392.36,364.5h2l.74-3.44h2.25l-.74,3.44h2.61l-.38,1.73h-2.61l-1.2,5.66c-.24,1.15-.09,1.68,1,1.68a7,7,0,0,0,1.3-.12l-.36,1.67a6.3,6.3,0,0,1-1.87.23c-2.24,0-2.84-1.12-2.42-3.14l1.27-6h-2Z"/><path d="M403.47,364.5c1.06,4.86,1.69,8,1.85,9.14h0c.6-1.08,2.31-4.24,5.07-9.14h2.44l-6.26,10.72c-2.36,4.09-3.27,5-5.93,5a9,9,0,0,1-1.76-.21l.44-1.92a7.4,7.4,0,0,0,1.35.13c1.31,0,2-.62,3.09-2.35l-2.63-11.4Z"/></g></svg>